<?xml version="1.0" standalone="no"?>
<!DOCTYPE svg PUBLIC "-//W3C//DTD SVG 20010904//EN"
 "http://www.w3.org/TR/2001/REC-SVG-20010904/DTD/svg10.dtd">
<svg version="1.0" xmlns="http://www.w3.org/2000/svg"
 width="225.000000pt" height="225.000000pt" viewBox="0 0 225.000000 225.000000"
 preserveAspectRatio="xMidYMid meet">
<metadata>
Created by potrace 1.14, written by Peter Selinger 2001-2017
</metadata>
<g transform="translate(0.000000,225.000000) scale(0.100000,-0.100000)"
fill="#000000" stroke="none">
<path d="M1065 2061 c-61 -15 -112 -47 -176 -110 -74 -74 -128 -161 -204 -330
-70 -155 -90 -212 -82 -242 4 -14 31 -53 62 -86 l56 -62 -105 -70 c-57 -39
-113 -83 -125 -100 -27 -37 -146 -343 -155 -397 -11 -64 11 -129 66 -198 l49
-61 -128 -3 c-131 -3 -156 -9 -133 -37 10 -12 40 -15 165 -15 152 0 153 0 169
-25 9 -14 20 -51 24 -83 l7 -57 549 -3 c433 -2 551 0 558 10 4 7 8 36 8 64 0
40 5 55 23 72 22 20 33 22 159 22 150 0 168 3 168 31 0 18 -9 19 -131 19
l-131 0 40 48 c63 76 77 108 76 187 0 63 -7 87 -68 237 -37 92 -77 179 -88
193 -11 14 -66 57 -124 97 l-104 72 43 46 c59 60 77 89 77 121 0 53 -137 351
-212 462 -97 143 -231 222 -333 198z m43 -268 l-3 -218 -95 -6 c-115 -7 -207
-24 -271 -49 l-48 -19 16 37 c32 79 96 209 126 257 71 114 129 169 212 202 69
27 66 37 63 -204z m235 -325 c16 -12 16 -17 2 -68 -42 -157 -77 -202 -185
-234 -49 -15 -58 -15 -113 1 -93 26 -128 65 -166 188 -29 93 -30 101 -14 113
12 9 77 12 238 12 161 0 226 -3 238 -12z m290 -608 c-1 -80 -5 -229 -8 -332
l-7 -188 -513 0 -513 0 -7 263 c-13 441 -15 401 19 407 16 3 255 3 530 0 l501
-5 -2 -145z m-21 -587 c11 -44 21 -43 -508 -43 l-504 0 0 30 0 30 504 0 c471
0 504 -1 508 -17z"/>
<path d="M1005 881 c-102 -46 -143 -166 -90 -264 14 -27 20 -49 15 -52 -14 -9
-12 -42 2 -51 7 -5 25 -7 40 -6 26 2 28 -1 28 -33 l0 -35 84 0 84 0 6 35 c6
32 10 35 40 35 36 0 51 23 35 53 -7 11 -3 27 11 49 28 46 28 140 -1 187 -56
92 -159 126 -254 82z m26 -191 c34 0 46 -19 29 -49 -12 -24 -49 -36 -80 -26
-24 8 -43 49 -35 76 5 15 11 16 31 9 14 -6 39 -10 55 -10z m199 -20 c0 -31
-30 -60 -62 -60 -24 0 -58 35 -58 60 0 16 7 20 33 21 17 0 41 4 52 8 27 11 35
5 35 -29z m-150 -104 c0 -26 -14 -41 -29 -32 -13 8 0 56 15 56 8 0 14 -10 14
-24z m52 -1 c6 -29 -10 -45 -23 -24 -13 21 -11 49 5 49 7 0 16 -11 18 -25z"/>
</g>
</svg>
